<svg width="256" height="256" version="1.1" viewBox="0 0 67.73 67.73" xmlns="http://www.w3.org/2000/svg"><path d="m67.55 33.87a38.89 62.71 0 0 1-33.68 31.35 38.89 62.71 0 0 1-33.68-31.35" fill="#0aa" stroke-width=".2646"/><path d="m0.1837 33.87a38.89 62.71 0 0 1 33.68-31.35 38.89 62.71 0 0 1 33.68 31.35l-33.68 31.35z" fill="#0aa" stroke-width=".2646"/><g transform="matrix(.9406 0 0 .9406 14.81 14.11)" style="paint-order:stroke fill markers"><path class="clr-i-outline clr-i-outline-path-1" d="m35.84 10.07-15.09-6.967a1.161 1.161 0 0 0-0.9753 0l-15.09 6.967a1.161 1.161 0 0 0-0.6734 1.057v19.74a1.161 1.161 0 0 0 0.6734 1.057l15.09 6.967a1.161 1.161 0 0 0 0.9753 0l15.09-6.967a1.161 1.161 0 0 0 0.6734-1.057v-19.74a1.161 1.161 0 0 0-0.6734-1.057zm-15.58-4.633 12.32 5.689-12.32 5.689-12.32-5.689zm-13.93 7.501 12.77 5.898v17.18l-12.77-5.898zm15.09 23.08v-17.18l12.77-5.898v17.18z" fill="#fff" style="paint-order:stroke fill markers"/></g><path d="m55.3 48.95-40.75-32.28" fill="none" stroke="#0aa" stroke-linecap="round" stroke-width="1.588"/><path d="m53.96 49.73-40.75-32.28" fill="none" stroke="#fff" stroke-linecap="round" stroke-width="1.588"/></svg>
